<svg width="133" height="127" viewBox="0 0 133 127" fill="none" xmlns="http://www.w3.org/2000/svg">
<path d="M9.06305 84.86C9.80971 84.9933 10.443 85.3867 10.963 86.04C11.483 86.6933 11.743 87.4333 11.743 88.26C11.743 88.9667 11.5564 89.6067 11.183 90.18C10.823 90.74 10.2964 91.1867 9.60305 91.52C8.90971 91.84 8.10305 92 7.18305 92H1.62305V78.1H6.92305C7.86971 78.1 8.68305 78.26 9.36305 78.58C10.043 78.9 10.5564 79.3333 10.903 79.88C11.2497 80.4133 11.423 81.0133 11.423 81.68C11.423 82.48 11.2097 83.1467 10.783 83.68C10.3564 84.2133 9.78305 84.6067 9.06305 84.86ZM3.90305 83.94H6.72305C7.46971 83.94 8.04971 83.7733 8.46305 83.44C8.88971 83.0933 9.10305 82.6 9.10305 81.96C9.10305 81.3333 8.88971 80.8467 8.46305 80.5C8.04971 80.14 7.46971 79.96 6.72305 79.96H3.90305V83.94ZM6.98305 90.14C7.75638 90.14 8.36305 89.9533 8.80305 89.58C9.24305 89.2067 9.46305 88.6867 9.46305 88.02C9.46305 87.34 9.22971 86.8 8.76305 86.4C8.29638 86 7.67638 85.8 6.90305 85.8H3.90305V90.14H6.98305ZM24.2007 80.98V92H21.9207V90.7C21.5607 91.1533 21.0874 91.5133 20.5007 91.78C19.9274 92.0333 19.314 92.16 18.6607 92.16C17.794 92.16 17.014 91.98 16.3207 91.62C15.6407 91.26 15.1007 90.7267 14.7007 90.02C14.314 89.3133 14.1207 88.46 14.1207 87.46V80.98H16.3807V87.12C16.3807 88.1067 16.6274 88.8667 17.1207 89.4C17.614 89.92 18.2874 90.18 19.1407 90.18C19.994 90.18 20.6674 89.92 21.1607 89.4C21.6674 88.8667 21.9207 88.1067 21.9207 87.12V80.98H24.2007ZM37.129 80.98L30.369 97.18H28.009L30.249 91.82L25.909 80.98H28.449L31.549 89.38L34.769 80.98H37.129ZM48.9496 86.22C48.9496 86.6333 48.9229 87.0067 48.8696 87.34H40.4496C40.5163 88.22 40.8429 88.9267 41.4296 89.46C42.0163 89.9933 42.7363 90.26 43.5896 90.26C44.8163 90.26 45.6829 89.7467 46.1896 88.72H48.6496C48.3163 89.7333 47.7096 90.5667 46.8296 91.22C45.9629 91.86 44.8829 92.18 43.5896 92.18C42.5363 92.18 41.5896 91.9467 40.7496 91.48C39.9229 91 39.2696 90.3333 38.7896 89.48C38.3229 88.6133 38.0896 87.6133 38.0896 86.48C38.0896 85.3467 38.3163 84.3533 38.7696 83.5C39.2363 82.6333 39.8829 81.9667 40.7096 81.5C41.5496 81.0333 42.5096 80.8 43.5896 80.8C44.6296 80.8 45.5563 81.0267 46.3696 81.48C47.1829 81.9333 47.8163 82.5733 48.2696 83.4C48.7229 84.2133 48.9496 85.1533 48.9496 86.22ZM46.5696 85.5C46.5563 84.66 46.2563 83.9867 45.6696 83.48C45.0829 82.9733 44.3563 82.72 43.4896 82.72C42.7029 82.72 42.0296 82.9733 41.4696 83.48C40.9096 83.9733 40.5763 84.6467 40.4696 85.5H46.5696ZM53.4734 82.58C53.8067 82.02 54.2467 81.5867 54.7934 81.28C55.3534 80.96 56.0134 80.8 56.7734 80.8V83.16H56.1934C55.3 83.16 54.62 83.3867 54.1534 83.84C53.7 84.2933 53.4734 85.08 53.4734 86.2V92H51.1934V80.98H53.4734V82.58ZM74.1245 82.1C73.7645 81.4067 73.2645 80.8867 72.6245 80.54C71.9845 80.18 71.2445 80 70.4045 80C69.4845 80 68.6645 80.2067 67.9445 80.62C67.2245 81.0333 66.6578 81.62 66.2445 82.38C65.8445 83.14 65.6445 84.02 65.6445 85.02C65.6445 86.02 65.8445 86.9067 66.2445 87.68C66.6578 88.44 67.2245 89.0267 67.9445 89.44C68.6645 89.8533 69.4845 90.06 70.4045 90.06C71.6445 90.06 72.6511 89.7133 73.4245 89.02C74.1978 88.3267 74.6711 87.3867 74.8445 86.2H69.6245V84.38H77.2845V86.16C77.1378 87.24 76.7511 88.2333 76.1245 89.14C75.5111 90.0467 74.7045 90.7733 73.7045 91.32C72.7178 91.8533 71.6178 92.12 70.4045 92.12C69.0978 92.12 67.9045 91.82 66.8245 91.22C65.7445 90.6067 64.8845 89.76 64.2445 88.68C63.6178 87.6 63.3045 86.38 63.3045 85.02C63.3045 83.66 63.6178 82.44 64.2445 81.36C64.8845 80.28 65.7445 79.44 66.8245 78.84C67.9178 78.2267 69.1111 77.92 70.4045 77.92C71.8845 77.92 73.1978 78.2867 74.3445 79.02C75.5045 79.74 76.3445 80.7667 76.8645 82.1H74.1245ZM89.5132 80.98V92H87.2332V90.7C86.8732 91.1533 86.3999 91.5133 85.8132 91.78C85.2399 92.0333 84.6265 92.16 83.9732 92.16C83.1065 92.16 82.3265 91.98 81.6332 91.62C80.9532 91.26 80.4132 90.7267 80.0132 90.02C79.6265 89.3133 79.4332 88.46 79.4332 87.46V80.98H81.6932V87.12C81.6932 88.1067 81.9399 88.8667 82.4332 89.4C82.9265 89.92 83.5999 90.18 84.4532 90.18C85.3065 90.18 85.9799 89.92 86.4732 89.4C86.9799 88.8667 87.2332 88.1067 87.2332 87.12V80.98H89.5132ZM93.6815 79.52C93.2682 79.52 92.9215 79.38 92.6415 79.1C92.3615 78.82 92.2215 78.4733 92.2215 78.06C92.2215 77.6467 92.3615 77.3 92.6415 77.02C92.9215 76.74 93.2682 76.6 93.6815 76.6C94.0815 76.6 94.4215 76.74 94.7015 77.02C94.9815 77.3 95.1215 77.6467 95.1215 78.06C95.1215 78.4733 94.9815 78.82 94.7015 79.1C94.4215 79.38 94.0815 79.52 93.6815 79.52ZM94.8015 80.98V92H92.5215V80.98H94.8015ZM97.0349 86.44C97.0349 85.3333 97.2616 84.3533 97.7149 83.5C98.1816 82.6467 98.8083 81.9867 99.5949 81.52C100.395 81.04 101.282 80.8 102.255 80.8C102.975 80.8 103.682 80.96 104.375 81.28C105.082 81.5867 105.642 82 106.055 82.52V77.2H108.355V92H106.055V90.34C105.682 90.8733 105.162 91.3133 104.495 91.66C103.842 92.0067 103.088 92.18 102.235 92.18C101.275 92.18 100.395 91.94 99.5949 91.46C98.8083 90.9667 98.1816 90.2867 97.7149 89.42C97.2616 88.54 97.0349 87.5467 97.0349 86.44ZM106.055 86.48C106.055 85.72 105.895 85.06 105.575 84.5C105.268 83.94 104.862 83.5133 104.355 83.22C103.848 82.9267 103.302 82.78 102.715 82.78C102.128 82.78 101.582 82.9267 101.075 83.22C100.568 83.5 100.155 83.92 99.8349 84.48C99.5283 85.0267 99.3749 85.68 99.3749 86.44C99.3749 87.2 99.5283 87.8667 99.8349 88.44C100.155 89.0133 100.568 89.4533 101.075 89.76C101.595 90.0533 102.142 90.2 102.715 90.2C103.302 90.2 103.848 90.0533 104.355 89.76C104.862 89.4667 105.268 89.04 105.575 88.48C105.895 87.9067 106.055 87.24 106.055 86.48ZM121.45 86.22C121.45 86.6333 121.423 87.0067 121.37 87.34H112.95C113.016 88.22 113.343 88.9267 113.93 89.46C114.516 89.9933 115.236 90.26 116.09 90.26C117.316 90.26 118.183 89.7467 118.69 88.72H121.15C120.816 89.7333 120.21 90.5667 119.33 91.22C118.463 91.86 117.383 92.18 116.09 92.18C115.036 92.18 114.09 91.9467 113.25 91.48C112.423 91 111.77 90.3333 111.29 89.48C110.823 88.6133 110.59 87.6133 110.59 86.48C110.59 85.3467 110.816 84.3533 111.27 83.5C111.736 82.6333 112.383 81.9667 113.21 81.5C114.05 81.0333 115.01 80.8 116.09 80.8C117.13 80.8 118.056 81.0267 118.87 81.48C119.683 81.9333 120.316 82.5733 120.77 83.4C121.223 84.2133 121.45 85.1533 121.45 86.22ZM119.07 85.5C119.056 84.66 118.756 83.9867 118.17 83.48C117.583 82.9733 116.856 82.72 115.99 82.72C115.203 82.72 114.53 82.9733 113.97 83.48C113.41 83.9733 113.076 84.6467 112.97 85.5H119.07ZM127.693 92.18C126.827 92.18 126.047 92.0267 125.353 91.72C124.673 91.4 124.133 90.9733 123.733 90.44C123.333 89.8933 123.12 89.2867 123.093 88.62H125.453C125.493 89.0867 125.713 89.48 126.113 89.8C126.527 90.1067 127.04 90.26 127.653 90.26C128.293 90.26 128.787 90.14 129.133 89.9C129.493 89.6467 129.673 89.3267 129.673 88.94C129.673 88.5267 129.473 88.22 129.073 88.02C128.687 87.82 128.067 87.6 127.213 87.36C126.387 87.1333 125.713 86.9133 125.193 86.7C124.673 86.4867 124.22 86.16 123.833 85.72C123.46 85.28 123.273 84.7 123.273 83.98C123.273 83.3933 123.447 82.86 123.793 82.38C124.14 81.8867 124.633 81.5 125.273 81.22C125.927 80.94 126.673 80.8 127.513 80.8C128.767 80.8 129.773 81.12 130.533 81.76C131.307 82.3867 131.72 83.2467 131.773 84.34H129.493C129.453 83.8467 129.253 83.4533 128.893 83.16C128.533 82.8667 128.047 82.72 127.433 82.72C126.833 82.72 126.373 82.8333 126.053 83.06C125.733 83.2867 125.573 83.5867 125.573 83.96C125.573 84.2533 125.68 84.5 125.893 84.7C126.107 84.9 126.367 85.06 126.673 85.18C126.98 85.2867 127.433 85.4267 128.033 85.6C128.833 85.8133 129.487 86.0333 129.993 86.26C130.513 86.4733 130.96 86.7933 131.333 87.22C131.707 87.6467 131.9 88.2133 131.913 88.92C131.913 89.5467 131.74 90.1067 131.393 90.6C131.047 91.0933 130.553 91.48 129.913 91.76C129.287 92.04 128.547 92.18 127.693 92.18Z" fill="#3B3C45"/>
<path d="M90.9469 12.5043L87.7023 27.2131C87.3361 28.875 86.4081 30.3761 85.0897 31.4407C83.7673 32.5085 82.1014 33.0967 80.3993 33.0967C79.364 33.0967 78.5247 32.2573 78.5247 31.222C78.5247 30.1864 79.364 29.3474 80.3993 29.3474C82.1615 29.3474 83.6589 28.1378 84.0413 26.4056L87.2855 11.6968C87.5085 10.6857 88.5087 10.0466 89.5201 10.2697C90.5312 10.4927 91.1699 11.4932 90.9469 12.5043ZM85.9294 42.4698C85.9294 45.5193 83.4487 48 80.3993 48C77.3498 48 74.8691 45.5193 74.8691 42.4698C74.8691 41.8469 74.9742 41.2482 75.165 40.689H67.0747C67.2655 41.2482 67.3706 41.8469 67.3706 42.4698C67.3706 45.5193 64.8895 48 61.8401 48C58.791 48 56.3099 45.5193 56.3099 42.4698C56.3099 41.8469 56.415 41.2482 56.6058 40.689H55.8412C52.7405 40.689 50.2173 38.1661 50.2173 35.0651C50.2173 35.049 50.2195 35.0339 50.2198 35.0182C50.2195 35.0024 50.2173 34.9871 50.2173 34.9713C50.2173 32.6957 51.5767 30.7332 53.5249 29.8484L51.2965 9.37537C50.8662 6.17175 48.109 3.75842 44.8746 3.75842C43.8394 3.75842 43 2.91907 43 1.88379C43 0.848145 43.8394 0.00915527 44.8746 0.00915527C49.991 0.00915527 54.3511 3.83459 55.0165 8.90698L55.0212 8.94836L57.2419 29.3474H71.0261C72.0614 29.3474 72.9008 30.1868 72.9008 31.222C72.9008 32.2573 72.0614 33.0967 71.0261 33.0967H55.8412C54.8077 33.0967 53.9666 33.9375 53.9666 34.9713C53.9666 34.9871 53.9647 35.0024 53.9644 35.0182C53.9647 35.0339 53.9666 35.0493 53.9666 35.0651C53.9666 36.0989 54.8077 36.9397 55.8412 36.9397H80.3993C83.4487 36.9397 85.9294 39.4204 85.9294 42.4698ZM61.8401 40.689C60.8583 40.689 60.0592 41.4877 60.0592 42.4698C60.0592 43.452 60.8583 44.2507 61.8401 44.2507C62.8223 44.2507 63.621 43.452 63.621 42.4698C63.621 41.4877 62.8223 40.689 61.8401 40.689ZM82.1802 42.4698C82.1802 41.4877 81.3811 40.689 80.3993 40.689C79.4171 40.689 78.6184 41.4877 78.6184 42.4698C78.6184 43.452 79.4171 44.2507 80.3993 44.2507C81.3811 44.2507 82.1802 43.4517 82.1802 42.4698ZM58.7632 11.9524C58.0685 11.1848 58.1274 9.99939 58.895 9.30469L67.6306 1.39856C69.6741 -0.466187 72.7528 -0.466187 74.7963 1.39856L83.5319 9.30469C84.2994 9.99939 84.3584 11.1848 83.6637 11.9524C83.2938 12.3615 82.7844 12.5691 82.2732 12.5691C81.9147 12.5691 81.5558 12.4651 81.2427 12.2582V17.5983C81.2427 20.5104 78.8751 22.8798 75.9652 22.8798H66.3679C63.458 22.8798 61.0905 20.5104 61.0905 17.5983V12.3175C60.3412 12.7507 59.3671 12.6196 58.7632 11.9524ZM64.8339 8.98645C64.8361 9.02454 64.8397 9.06262 64.8397 9.10107V17.5979C64.8397 18.4431 65.5253 19.1305 66.3679 19.1305H75.9652C76.8079 19.1305 77.4934 18.4431 77.4934 17.5979V9.10107C77.4934 9.03516 77.4971 8.96997 77.5037 8.90588L72.2771 4.17554C72.2749 4.17334 72.2723 4.17114 72.2701 4.16895C71.6677 3.61853 70.7592 3.61853 70.1567 4.16895C70.1545 4.17114 70.1523 4.17334 70.1501 4.17554L64.8339 8.98645Z" fill="#3B3C45"/>
<mask id="mask0_2_574" style="mask-type:alpha" maskUnits="userSpaceOnUse" x="43" y="0" width="48" height="48">
<path d="M90.9469 12.5043L87.7023 27.2131C87.3361 28.875 86.4081 30.3761 85.0897 31.4407C83.7673 32.5085 82.1014 33.0967 80.3993 33.0967C79.364 33.0967 78.5247 32.2573 78.5247 31.222C78.5247 30.1864 79.364 29.3474 80.3993 29.3474C82.1615 29.3474 83.6589 28.1378 84.0413 26.4056L87.2855 11.6968C87.5085 10.6857 88.5087 10.0466 89.5201 10.2697C90.5312 10.4927 91.1699 11.4932 90.9469 12.5043ZM85.9294 42.4698C85.9294 45.5193 83.4487 48 80.3993 48C77.3498 48 74.8691 45.5193 74.8691 42.4698C74.8691 41.8469 74.9742 41.2482 75.165 40.689H67.0747C67.2655 41.2482 67.3706 41.8469 67.3706 42.4698C67.3706 45.5193 64.8895 48 61.8401 48C58.791 48 56.3099 45.5193 56.3099 42.4698C56.3099 41.8469 56.415 41.2482 56.6058 40.689H55.8412C52.7405 40.689 50.2173 38.1661 50.2173 35.0651C50.2173 35.049 50.2195 35.0339 50.2198 35.0182C50.2195 35.0024 50.2173 34.9871 50.2173 34.9713C50.2173 32.6957 51.5767 30.7332 53.5249 29.8484L51.2965 9.37537C50.8662 6.17175 48.109 3.75842 44.8746 3.75842C43.8394 3.75842 43 2.91907 43 1.88379C43 0.848145 43.8394 0.00915527 44.8746 0.00915527C49.991 0.00915527 54.3511 3.83459 55.0165 8.90698L55.0212 8.94836L57.2419 29.3474H71.0261C72.0614 29.3474 72.9008 30.1868 72.9008 31.222C72.9008 32.2573 72.0614 33.0967 71.0261 33.0967H55.8412C54.8077 33.0967 53.9666 33.9375 53.9666 34.9713C53.9666 34.9871 53.9647 35.0024 53.9644 35.0182C53.9647 35.0339 53.9666 35.0493 53.9666 35.0651C53.9666 36.0989 54.8077 36.9397 55.8412 36.9397H80.3993C83.4487 36.9397 85.9294 39.4204 85.9294 42.4698ZM61.8401 40.689C60.8583 40.689 60.0592 41.4877 60.0592 42.4698C60.0592 43.452 60.8583 44.2507 61.8401 44.2507C62.8223 44.2507 63.621 43.452 63.621 42.4698C63.621 41.4877 62.8223 40.689 61.8401 40.689ZM82.1802 42.4698C82.1802 41.4877 81.3811 40.689 80.3993 40.689C79.4171 40.689 78.6184 41.4877 78.6184 42.4698C78.6184 43.452 79.4171 44.2507 80.3993 44.2507C81.3811 44.2507 82.1802 43.4517 82.1802 42.4698ZM58.7632 11.9524C58.0685 11.1848 58.1274 9.99939 58.895 9.30469L67.6306 1.39856C69.6741 -0.466187 72.7528 -0.466187 74.7963 1.39856L83.5319 9.30469C84.2994 9.99939 84.3584 11.1848 83.6637 11.9524C83.2938 12.3615 82.7844 12.5691 82.2732 12.5691C81.9147 12.5691 81.5558 12.4651 81.2427 12.2582V17.5983C81.2427 20.5104 78.8751 22.8798 75.9652 22.8798H66.3679C63.458 22.8798 61.0905 20.5104 61.0905 17.5983V12.3175C60.3412 12.7507 59.3671 12.6196 58.7632 11.9524ZM64.8339 8.98645C64.8361 9.02454 64.8397 9.06262 64.8397 9.10107V17.5979C64.8397 18.4431 65.5253 19.1305 66.3679 19.1305H75.9652C76.8079 19.1305 77.4934 18.4431 77.4934 17.5979V9.10107C77.4934 9.03516 77.4971 8.96997 77.5037 8.90588L72.2771 4.17554C72.2749 4.17334 72.2723 4.17114 72.2701 4.16895C71.6677 3.61853 70.7592 3.61853 70.1567 4.16895C70.1545 4.17114 70.1523 4.17334 70.1501 4.17554L64.8339 8.98645Z" fill="#3B3C45"/>
</mask>
<g mask="url(#mask0_2_574)">
<rect x="58" y="-8" width="26" height="32" fill="#F7A804"/>
</g>
<path d="M120.24 120.68C120.113 120.85 119.923 120.962 119.713 120.992C119.503 121.022 119.29 120.967 119.12 120.84C118.95 120.713 118.838 120.523 118.808 120.313C118.778 120.103 118.833 119.89 118.96 119.72L120.4 117.8L99.8 117.8C99.5878 117.8 99.3843 117.716 99.2343 117.566C99.0843 117.416 99 117.212 99 117C99 116.788 99.0843 116.584 99.2343 116.434C99.3843 116.284 99.5878 116.2 99.8 116.2L120.4 116.2L118.96 114.28C118.897 114.196 118.851 114.1 118.825 113.999C118.799 113.897 118.793 113.791 118.808 113.687C118.823 113.583 118.858 113.483 118.912 113.392C118.965 113.302 119.036 113.223 119.12 113.16C119.204 113.097 119.3 113.051 119.401 113.025C119.503 112.999 119.609 112.993 119.713 113.008C119.817 113.023 119.917 113.058 120.008 113.112C120.098 113.165 120.177 113.236 120.24 113.32L122.635 116.514L122.646 116.527L123 117L122.646 117.472L122.635 117.486L120.24 120.68Z" fill="#0689FF"/>
<path d="M20.5603 111.228V121H18.6003V116.842H14.4143V121H12.4543V111.228H14.4143V115.246H18.6003V111.228H20.5603ZM25.9334 121.126C25.1868 121.126 24.5148 120.963 23.9174 120.636C23.3201 120.3 22.8488 119.829 22.5034 119.222C22.1674 118.615 21.9994 117.915 21.9994 117.122C21.9994 116.329 22.1721 115.629 22.5174 115.022C22.8721 114.415 23.3528 113.949 23.9594 113.622C24.5661 113.286 25.2428 113.118 25.9894 113.118C26.7361 113.118 27.4128 113.286 28.0194 113.622C28.6261 113.949 29.1021 114.415 29.4474 115.022C29.8021 115.629 29.9794 116.329 29.9794 117.122C29.9794 117.915 29.7974 118.615 29.4334 119.222C29.0788 119.829 28.5934 120.3 27.9774 120.636C27.3708 120.963 26.6894 121.126 25.9334 121.126ZM25.9334 119.418C26.2881 119.418 26.6194 119.334 26.9274 119.166C27.2448 118.989 27.4968 118.727 27.6834 118.382C27.8701 118.037 27.9634 117.617 27.9634 117.122C27.9634 116.385 27.7674 115.82 27.3754 115.428C26.9928 115.027 26.5214 114.826 25.9614 114.826C25.4014 114.826 24.9301 115.027 24.5474 115.428C24.1741 115.82 23.9874 116.385 23.9874 117.122C23.9874 117.859 24.1694 118.429 24.5334 118.83C24.9068 119.222 25.3734 119.418 25.9334 119.418ZM42.1692 113.244L39.9012 121H37.7872L36.3732 115.582L34.9592 121H32.8312L30.5492 113.244H32.5372L33.9092 119.152L35.3932 113.244H37.4652L38.9212 119.138L40.2932 113.244H42.1692ZM48.8476 114.854V118.606C48.8476 118.867 48.9083 119.059 49.0296 119.18C49.1603 119.292 49.3749 119.348 49.6736 119.348H50.5836V121H49.3516C47.6996 121 46.8736 120.197 46.8736 118.592V114.854H45.9496V113.244H46.8736V111.326H48.8476V113.244H50.5836V114.854H48.8476ZM55.4373 121.126C54.6907 121.126 54.0187 120.963 53.4213 120.636C52.824 120.3 52.3527 119.829 52.0073 119.222C51.6713 118.615 51.5033 117.915 51.5033 117.122C51.5033 116.329 51.676 115.629 52.0213 115.022C52.376 114.415 52.8567 113.949 53.4633 113.622C54.07 113.286 54.7467 113.118 55.4933 113.118C56.24 113.118 56.9167 113.286 57.5233 113.622C58.13 113.949 58.606 114.415 58.9513 115.022C59.306 115.629 59.4833 116.329 59.4833 117.122C59.4833 117.915 59.3013 118.615 58.9373 119.222C58.5827 119.829 58.0973 120.3 57.4813 120.636C56.8747 120.963 56.1933 121.126 55.4373 121.126ZM55.4373 119.418C55.792 119.418 56.1233 119.334 56.4313 119.166C56.7487 118.989 57.0007 118.727 57.1873 118.382C57.374 118.037 57.4673 117.617 57.4673 117.122C57.4673 116.385 57.2713 115.82 56.8793 115.428C56.4967 115.027 56.0253 114.826 55.4653 114.826C54.9053 114.826 54.434 115.027 54.0513 115.428C53.678 115.82 53.4913 116.385 53.4913 117.122C53.4913 117.859 53.6733 118.429 54.0373 118.83C54.4107 119.222 54.8773 119.418 55.4373 119.418ZM66.217 114.378C66.469 114.005 66.8143 113.701 67.253 113.468C67.701 113.235 68.2097 113.118 68.779 113.118C69.4417 113.118 70.039 113.281 70.571 113.608C71.1123 113.935 71.537 114.401 71.845 115.008C72.1623 115.605 72.321 116.301 72.321 117.094C72.321 117.887 72.1623 118.592 71.845 119.208C71.537 119.815 71.1123 120.286 70.571 120.622C70.039 120.958 69.4417 121.126 68.779 121.126C68.2003 121.126 67.6917 121.014 67.253 120.79C66.8237 120.557 66.4783 120.258 66.217 119.894V121H64.257V110.64H66.217V114.378ZM70.319 117.094C70.319 116.627 70.221 116.226 70.025 115.89C69.8383 115.545 69.5863 115.283 69.269 115.106C68.961 114.929 68.625 114.84 68.261 114.84C67.9063 114.84 67.5703 114.933 67.253 115.12C66.945 115.297 66.693 115.559 66.497 115.904C66.3103 116.249 66.217 116.655 66.217 117.122C66.217 117.589 66.3103 117.995 66.497 118.34C66.693 118.685 66.945 118.951 67.253 119.138C67.5703 119.315 67.9063 119.404 68.261 119.404C68.625 119.404 68.961 119.311 69.269 119.124C69.5863 118.937 69.8383 118.671 70.025 118.326C70.221 117.981 70.319 117.57 70.319 117.094ZM81.0673 113.244V121H79.0933V120.02C78.8413 120.356 78.51 120.622 78.0993 120.818C77.698 121.005 77.2593 121.098 76.7833 121.098C76.1766 121.098 75.64 120.972 75.1733 120.72C74.7066 120.459 74.338 120.081 74.0673 119.586C73.806 119.082 73.6753 118.485 73.6753 117.794V113.244H75.6353V117.514C75.6353 118.13 75.7893 118.606 76.0973 118.942C76.4053 119.269 76.8253 119.432 77.3573 119.432C77.8986 119.432 78.3233 119.269 78.6313 118.942C78.9393 118.606 79.0933 118.13 79.0933 117.514V113.244H81.0673ZM90.4212 113.244L85.6192 124.668H83.5332L85.2132 120.804L82.1052 113.244H84.3032L86.3052 118.662L88.3352 113.244H90.4212Z" fill="#0689FF"/>
</svg>
