<svg width="141" height="129" viewBox="0 0 141 129" fill="none" xmlns="http://www.w3.org/2000/svg">
<path d="M8.75125 92L5.55125 86.44H3.81125V92H1.53125V78.1H6.33125C7.39792 78.1 8.29792 78.2867 9.03125 78.66C9.77792 79.0333 10.3313 79.5333 10.6913 80.16C11.0646 80.7867 11.2513 81.4867 11.2513 82.26C11.2513 83.1667 10.9846 83.9933 10.4513 84.74C9.93125 85.4733 9.12458 85.9733 8.03125 86.24L11.4713 92H8.75125ZM3.81125 84.62H6.33125C7.18458 84.62 7.82458 84.4067 8.25125 83.98C8.69125 83.5533 8.91125 82.98 8.91125 82.26C8.91125 81.54 8.69792 80.98 8.27125 80.58C7.84458 80.1667 7.19792 79.96 6.33125 79.96H3.81125V84.62ZM24.268 86.22C24.268 86.6333 24.2413 87.0067 24.188 87.34H15.768C15.8346 88.22 16.1613 88.9267 16.748 89.46C17.3346 89.9933 18.0546 90.26 18.908 90.26C20.1346 90.26 21.0013 89.7467 21.508 88.72H23.968C23.6346 89.7333 23.028 90.5667 22.148 91.22C21.2813 91.86 20.2013 92.18 18.908 92.18C17.8546 92.18 16.908 91.9467 16.068 91.48C15.2413 91 14.588 90.3333 14.108 89.48C13.6413 88.6133 13.408 87.6133 13.408 86.48C13.408 85.3467 13.6346 84.3533 14.088 83.5C14.5546 82.6333 15.2013 81.9667 16.028 81.5C16.868 81.0333 17.828 80.8 18.908 80.8C19.948 80.8 20.8746 81.0267 21.688 81.48C22.5013 81.9333 23.1346 82.5733 23.588 83.4C24.0413 84.2133 24.268 85.1533 24.268 86.22ZM21.888 85.5C21.8746 84.66 21.5746 83.9867 20.988 83.48C20.4013 82.9733 19.6746 82.72 18.808 82.72C18.0213 82.72 17.348 82.9733 16.788 83.48C16.228 83.9733 15.8946 84.6467 15.788 85.5H21.888ZM32.0717 80.8C32.9384 80.8 33.7117 80.98 34.3917 81.34C35.0851 81.7 35.6251 82.2333 36.0117 82.94C36.3984 83.6467 36.5917 84.5 36.5917 85.5V92H34.3317V85.84C34.3317 84.8533 34.0851 84.1 33.5917 83.58C33.0984 83.0467 32.4251 82.78 31.5717 82.78C30.7184 82.78 30.0384 83.0467 29.5317 83.58C29.0384 84.1 28.7917 84.8533 28.7917 85.84V92H26.5117V80.98H28.7917V82.24C29.1651 81.7867 29.6384 81.4333 30.2117 81.18C30.7984 80.9267 31.4184 80.8 32.0717 80.8ZM42.16 82.84V88.94C42.16 89.3533 42.2533 89.6533 42.44 89.84C42.64 90.0133 42.9733 90.1 43.44 90.1H44.84V92H43.04C42.0133 92 41.2267 91.76 40.68 91.28C40.1333 90.8 39.86 90.02 39.86 88.94V82.84H38.56V80.98H39.86V78.24H42.16V80.98H44.84V82.84H42.16ZM57.0414 86.22C57.0414 86.6333 57.0147 87.0067 56.9614 87.34H48.5414C48.6081 88.22 48.9347 88.9267 49.5214 89.46C50.1081 89.9933 50.8281 90.26 51.6814 90.26C52.9081 90.26 53.7747 89.7467 54.2814 88.72H56.7414C56.4081 89.7333 55.8014 90.5667 54.9214 91.22C54.0547 91.86 52.9747 92.18 51.6814 92.18C50.6281 92.18 49.6814 91.9467 48.8414 91.48C48.0147 91 47.3614 90.3333 46.8814 89.48C46.4147 88.6133 46.1814 87.6133 46.1814 86.48C46.1814 85.3467 46.4081 84.3533 46.8614 83.5C47.3281 82.6333 47.9747 81.9667 48.8014 81.5C49.6414 81.0333 50.6014 80.8 51.6814 80.8C52.7214 80.8 53.6481 81.0267 54.4614 81.48C55.2747 81.9333 55.9081 82.5733 56.3614 83.4C56.8147 84.2133 57.0414 85.1533 57.0414 86.22ZM54.6614 85.5C54.6481 84.66 54.3481 83.9867 53.7614 83.48C53.1747 82.9733 52.4481 82.72 51.5814 82.72C50.7947 82.72 50.1214 82.9733 49.5614 83.48C49.0014 83.9733 48.6681 84.6467 48.5614 85.5H54.6614ZM61.5652 82.58C61.8985 82.02 62.3385 81.5867 62.8852 81.28C63.4452 80.96 64.1052 80.8 64.8652 80.8V83.16H64.2852C63.3918 83.16 62.7118 83.3867 62.2452 83.84C61.7918 84.2933 61.5652 85.08 61.5652 86.2V92H59.2852V80.98H61.5652V82.58ZM82.2163 82.1C81.8563 81.4067 81.3563 80.8867 80.7163 80.54C80.0763 80.18 79.3363 80 78.4963 80C77.5763 80 76.7563 80.2067 76.0363 80.62C75.3163 81.0333 74.7496 81.62 74.3363 82.38C73.9363 83.14 73.7363 84.02 73.7363 85.02C73.7363 86.02 73.9363 86.9067 74.3363 87.68C74.7496 88.44 75.3163 89.0267 76.0363 89.44C76.7563 89.8533 77.5763 90.06 78.4963 90.06C79.7363 90.06 80.7429 89.7133 81.5163 89.02C82.2896 88.3267 82.7629 87.3867 82.9363 86.2H77.7163V84.38H85.3763V86.16C85.2296 87.24 84.8429 88.2333 84.2163 89.14C83.6029 90.0467 82.7963 90.7733 81.7963 91.32C80.8096 91.8533 79.7096 92.12 78.4963 92.12C77.1896 92.12 75.9963 91.82 74.9163 91.22C73.8363 90.6067 72.9763 89.76 72.3363 88.68C71.7096 87.6 71.3963 86.38 71.3963 85.02C71.3963 83.66 71.7096 82.44 72.3363 81.36C72.9763 80.28 73.8363 79.44 74.9163 78.84C76.0096 78.2267 77.2029 77.92 78.4963 77.92C79.9763 77.92 81.2896 78.2867 82.4363 79.02C83.5963 79.74 84.4363 80.7667 84.9563 82.1H82.2163ZM97.605 80.98V92H95.325V90.7C94.965 91.1533 94.4917 91.5133 93.905 91.78C93.3317 92.0333 92.7183 92.16 92.065 92.16C91.1983 92.16 90.4183 91.98 89.725 91.62C89.045 91.26 88.505 90.7267 88.105 90.02C87.7183 89.3133 87.525 88.46 87.525 87.46V80.98H89.785V87.12C89.785 88.1067 90.0317 88.8667 90.525 89.4C91.0183 89.92 91.6917 90.18 92.545 90.18C93.3983 90.18 94.0717 89.92 94.565 89.4C95.0717 88.8667 95.325 88.1067 95.325 87.12V80.98H97.605ZM101.773 79.52C101.36 79.52 101.013 79.38 100.733 79.1C100.453 78.82 100.313 78.4733 100.313 78.06C100.313 77.6467 100.453 77.3 100.733 77.02C101.013 76.74 101.36 76.6 101.773 76.6C102.173 76.6 102.513 76.74 102.793 77.02C103.073 77.3 103.213 77.6467 103.213 78.06C103.213 78.4733 103.073 78.82 102.793 79.1C102.513 79.38 102.173 79.52 101.773 79.52ZM102.893 80.98V92H100.613V80.98H102.893ZM105.127 86.44C105.127 85.3333 105.353 84.3533 105.807 83.5C106.273 82.6467 106.9 81.9867 107.687 81.52C108.487 81.04 109.373 80.8 110.347 80.8C111.067 80.8 111.773 80.96 112.467 81.28C113.173 81.5867 113.733 82 114.147 82.52V77.2H116.447V92H114.147V90.34C113.773 90.8733 113.253 91.3133 112.587 91.66C111.933 92.0067 111.18 92.18 110.327 92.18C109.367 92.18 108.487 91.94 107.687 91.46C106.9 90.9667 106.273 90.2867 105.807 89.42C105.353 88.54 105.127 87.5467 105.127 86.44ZM114.147 86.48C114.147 85.72 113.987 85.06 113.667 84.5C113.36 83.94 112.953 83.5133 112.447 83.22C111.94 82.9267 111.393 82.78 110.807 82.78C110.22 82.78 109.673 82.9267 109.167 83.22C108.66 83.5 108.247 83.92 107.927 84.48C107.62 85.0267 107.467 85.68 107.467 86.44C107.467 87.2 107.62 87.8667 107.927 88.44C108.247 89.0133 108.66 89.4533 109.167 89.76C109.687 90.0533 110.233 90.2 110.807 90.2C111.393 90.2 111.94 90.0533 112.447 89.76C112.953 89.4667 113.36 89.04 113.667 88.48C113.987 87.9067 114.147 87.24 114.147 86.48ZM129.541 86.22C129.541 86.6333 129.515 87.0067 129.461 87.34H121.041C121.108 88.22 121.435 88.9267 122.021 89.46C122.608 89.9933 123.328 90.26 124.181 90.26C125.408 90.26 126.275 89.7467 126.781 88.72H129.241C128.908 89.7333 128.301 90.5667 127.421 91.22C126.555 91.86 125.475 92.18 124.181 92.18C123.128 92.18 122.181 91.9467 121.341 91.48C120.515 91 119.861 90.3333 119.381 89.48C118.915 88.6133 118.681 87.6133 118.681 86.48C118.681 85.3467 118.908 84.3533 119.361 83.5C119.828 82.6333 120.475 81.9667 121.301 81.5C122.141 81.0333 123.101 80.8 124.181 80.8C125.221 80.8 126.148 81.0267 126.961 81.48C127.775 81.9333 128.408 82.5733 128.861 83.4C129.315 84.2133 129.541 85.1533 129.541 86.22ZM127.161 85.5C127.148 84.66 126.848 83.9867 126.261 83.48C125.675 82.9733 124.948 82.72 124.081 82.72C123.295 82.72 122.621 82.9733 122.061 83.48C121.501 83.9733 121.168 84.6467 121.061 85.5H127.161ZM135.785 92.18C134.918 92.18 134.138 92.0267 133.445 91.72C132.765 91.4 132.225 90.9733 131.825 90.44C131.425 89.8933 131.212 89.2867 131.185 88.62H133.545C133.585 89.0867 133.805 89.48 134.205 89.8C134.618 90.1067 135.132 90.26 135.745 90.26C136.385 90.26 136.878 90.14 137.225 89.9C137.585 89.6467 137.765 89.3267 137.765 88.94C137.765 88.5267 137.565 88.22 137.165 88.02C136.778 87.82 136.158 87.6 135.305 87.36C134.478 87.1333 133.805 86.9133 133.285 86.7C132.765 86.4867 132.312 86.16 131.925 85.72C131.552 85.28 131.365 84.7 131.365 83.98C131.365 83.3933 131.538 82.86 131.885 82.38C132.232 81.8867 132.725 81.5 133.365 81.22C134.018 80.94 134.765 80.8 135.605 80.8C136.858 80.8 137.865 81.12 138.625 81.76C139.398 82.3867 139.812 83.2467 139.865 84.34H137.585C137.545 83.8467 137.345 83.4533 136.985 83.16C136.625 82.8667 136.138 82.72 135.525 82.72C134.925 82.72 134.465 82.8333 134.145 83.06C133.825 83.2867 133.665 83.5867 133.665 83.96C133.665 84.2533 133.772 84.5 133.985 84.7C134.198 84.9 134.458 85.06 134.765 85.18C135.072 85.2867 135.525 85.4267 136.125 85.6C136.925 85.8133 137.578 86.0333 138.085 86.26C138.605 86.4733 139.052 86.7933 139.425 87.22C139.798 87.6467 139.992 88.2133 140.005 88.92C140.005 89.5467 139.832 90.1067 139.485 90.6C139.138 91.0933 138.645 91.48 138.005 91.76C137.378 92.04 136.638 92.18 135.785 92.18Z" fill="#3B3C45"/>
<path d="M85.5532 17.7604L70.0003 4.86811L54.4475 17.7604V24.5453H50.6997V20.867L48.3918 22.7805L46 19.8951L70.0003 0L94.0007 19.8951L91.6089 22.7805L89.301 20.867V24.5453H85.5532V17.7604ZM59.6943 47.9685H68.2202V44.2206H63.4418V38.9738H68.2202V35.2263H63.4418V31.4785H68.2202V27.731H59.6943V47.9685ZM84.0543 31.4785H87.1462V47.9685H90.8937V31.4785H93.9857V27.731H84.0543V31.4785ZM54.0666 38.4212L57.3216 47.9685H53.362L50.2957 38.9742H49.7629V47.9685H46.015V27.731H51.6368C54.7365 27.731 57.2582 30.2528 57.2582 33.3524C57.2582 35.5823 55.953 37.513 54.0666 38.4212ZM49.7629 35.2263H51.6368C52.6699 35.2263 53.5104 34.3855 53.5104 33.3524C53.5104 32.3193 52.6699 31.4785 51.6368 31.4785H49.7629V35.2263ZM77.9641 37.1797L74.5726 27.8409L74.4975 27.868V27.731H70.75V47.9685H74.4975V38.6131L77.8894 47.9523L77.9641 47.9252V47.9685H81.7119V27.731H77.9641V37.1797Z" fill="#3B3C45"/>
<mask id="mask0_2_551" style="mask-type:alpha" maskUnits="userSpaceOnUse" x="46" y="0" width="49" height="48">
<path d="M85.5532 17.7604L70.0003 4.86811L54.4475 17.7604V24.5453H50.6997V20.867L48.3918 22.7805L46 19.8951L70.0003 0L94.0007 19.8951L91.6089 22.7805L89.301 20.867V24.5453H85.5532V17.7604ZM59.6943 47.9685H68.2202V44.2206H63.4418V38.9738H68.2202V35.2263H63.4418V31.4785H68.2202V27.731H59.6943V47.9685ZM84.0543 31.4785H87.1462V47.9685H90.8937V31.4785H93.9857V27.731H84.0543V31.4785ZM54.0666 38.4212L57.3216 47.9685H53.362L50.2957 38.9742H49.7629V47.9685H46.015V27.731H51.6368C54.7365 27.731 57.2582 30.2528 57.2582 33.3524C57.2582 35.5823 55.953 37.513 54.0666 38.4212ZM49.7629 35.2263H51.6368C52.6699 35.2263 53.5104 34.3855 53.5104 33.3524C53.5104 32.3193 52.6699 31.4785 51.6368 31.4785H49.7629V35.2263ZM77.9641 37.1797L74.5726 27.8409L74.4975 27.868V27.731H70.75V47.9685H74.4975V38.6131L77.8894 47.9523L77.9641 47.9252V47.9685H81.7119V27.731H77.9641V37.1797Z" fill="#3B3C45"/>
</mask>
<g mask="url(#mask0_2_551)">
<rect x="42.3996" y="25.1998" width="54.0008" height="25.2004" fill="#F7A804"/>
</g>
<path d="M23.1784 111.228V121H21.2184V116.842H17.0324V121H15.0724V111.228H17.0324V115.246H21.2184V111.228H23.1784ZM28.5516 121.126C27.8049 121.126 27.1329 120.963 26.5356 120.636C25.9383 120.3 25.4669 119.829 25.1216 119.222C24.7856 118.615 24.6176 117.915 24.6176 117.122C24.6176 116.329 24.7903 115.629 25.1356 115.022C25.4903 114.415 25.9709 113.949 26.5776 113.622C27.1843 113.286 27.8609 113.118 28.6076 113.118C29.3543 113.118 30.0309 113.286 30.6376 113.622C31.2443 113.949 31.7203 114.415 32.0656 115.022C32.4203 115.629 32.5976 116.329 32.5976 117.122C32.5976 117.915 32.4156 118.615 32.0516 119.222C31.6969 119.829 31.2116 120.3 30.5956 120.636C29.9889 120.963 29.3076 121.126 28.5516 121.126ZM28.5516 119.418C28.9063 119.418 29.2376 119.334 29.5456 119.166C29.8629 118.989 30.1149 118.727 30.3016 118.382C30.4883 118.037 30.5816 117.617 30.5816 117.122C30.5816 116.385 30.3856 115.82 29.9936 115.428C29.6109 115.027 29.1396 114.826 28.5796 114.826C28.0196 114.826 27.5483 115.027 27.1656 115.428C26.7923 115.82 26.6056 116.385 26.6056 117.122C26.6056 117.859 26.7876 118.429 27.1516 118.83C27.5249 119.222 27.9916 119.418 28.5516 119.418ZM44.7873 113.244L42.5193 121H40.4053L38.9913 115.582L37.5773 121H35.4493L33.1673 113.244H35.1553L36.5273 119.152L38.0113 113.244H40.0833L41.5393 119.138L42.9113 113.244H44.7873ZM51.4658 114.854V118.606C51.4658 118.867 51.5264 119.059 51.6478 119.18C51.7784 119.292 51.9931 119.348 52.2918 119.348H53.2018V121H51.9698C50.3178 121 49.4918 120.197 49.4918 118.592V114.854H48.5678V113.244H49.4918V111.326H51.4658V113.244H53.2018V114.854H51.4658ZM58.0555 121.126C57.3088 121.126 56.6368 120.963 56.0395 120.636C55.4422 120.3 54.9708 119.829 54.6255 119.222C54.2895 118.615 54.1215 117.915 54.1215 117.122C54.1215 116.329 54.2942 115.629 54.6395 115.022C54.9942 114.415 55.4748 113.949 56.0815 113.622C56.6882 113.286 57.3648 113.118 58.1115 113.118C58.8582 113.118 59.5348 113.286 60.1415 113.622C60.7482 113.949 61.2242 114.415 61.5695 115.022C61.9242 115.629 62.1015 116.329 62.1015 117.122C62.1015 117.915 61.9195 118.615 61.5555 119.222C61.2008 119.829 60.7155 120.3 60.0995 120.636C59.4928 120.963 58.8115 121.126 58.0555 121.126ZM58.0555 119.418C58.4102 119.418 58.7415 119.334 59.0495 119.166C59.3668 118.989 59.6188 118.727 59.8055 118.382C59.9922 118.037 60.0855 117.617 60.0855 117.122C60.0855 116.385 59.8895 115.82 59.4975 115.428C59.1148 115.027 58.6435 114.826 58.0835 114.826C57.5235 114.826 57.0522 115.027 56.6695 115.428C56.2962 115.82 56.1095 116.385 56.1095 117.122C56.1095 117.859 56.2915 118.429 56.6555 118.83C57.0288 119.222 57.4955 119.418 58.0555 119.418ZM68.8352 114.448C69.0872 114.037 69.4138 113.715 69.8152 113.482C70.2258 113.249 70.6925 113.132 71.2152 113.132V115.19H70.6972C70.0812 115.19 69.6145 115.335 69.2972 115.624C68.9892 115.913 68.8352 116.417 68.8352 117.136V121H66.8752V113.244H68.8352V114.448ZM79.7453 116.954C79.7453 117.234 79.7267 117.486 79.6893 117.71H74.0193C74.066 118.27 74.262 118.709 74.6073 119.026C74.9527 119.343 75.3773 119.502 75.8813 119.502C76.6093 119.502 77.1273 119.189 77.4353 118.564H79.5493C79.3253 119.311 78.896 119.927 78.2613 120.412C77.6267 120.888 76.8473 121.126 75.9233 121.126C75.1767 121.126 74.5047 120.963 73.9073 120.636C73.3193 120.3 72.8573 119.829 72.5213 119.222C72.1947 118.615 72.0313 117.915 72.0313 117.122C72.0313 116.319 72.1947 115.615 72.5213 115.008C72.848 114.401 73.3053 113.935 73.8933 113.608C74.4813 113.281 75.158 113.118 75.9233 113.118C76.6607 113.118 77.3187 113.277 77.8973 113.594C78.4853 113.911 78.938 114.364 79.2553 114.952C79.582 115.531 79.7453 116.198 79.7453 116.954ZM77.7153 116.394C77.706 115.89 77.524 115.489 77.1693 115.19C76.8147 114.882 76.3807 114.728 75.8673 114.728C75.382 114.728 74.9713 114.877 74.6353 115.176C74.3087 115.465 74.108 115.871 74.0333 116.394H77.7153ZM85.474 113.132C86.398 113.132 87.1446 113.426 87.714 114.014C88.2833 114.593 88.568 115.405 88.568 116.45V121H86.608V116.716C86.608 116.1 86.454 115.629 86.146 115.302C85.838 114.966 85.418 114.798 84.886 114.798C84.3446 114.798 83.9153 114.966 83.598 115.302C83.29 115.629 83.136 116.1 83.136 116.716V121H81.176V113.244H83.136V114.21C83.3973 113.874 83.7286 113.613 84.13 113.426C84.5406 113.23 84.9886 113.132 85.474 113.132ZM92.7138 114.854V118.606C92.7138 118.867 92.7745 119.059 92.8958 119.18C93.0265 119.292 93.2412 119.348 93.5398 119.348H94.4498V121H93.2178C91.5658 121 90.7398 120.197 90.7398 118.592V114.854H89.8158V113.244H90.7398V111.326H92.7138V113.244H94.4498V114.854H92.7138Z" fill="#0689FF"/>
<g clip-path="url(#clip0_2_551)">
<path d="M124.24 120.68C124.113 120.85 123.923 120.962 123.713 120.992C123.503 121.022 123.29 120.967 123.12 120.84C122.95 120.713 122.838 120.523 122.808 120.313C122.778 120.103 122.833 119.89 122.96 119.72L124.4 117.8L103.8 117.8C103.588 117.8 103.384 117.716 103.234 117.566C103.084 117.416 103 117.212 103 117C103 116.788 103.084 116.584 103.234 116.434C103.384 116.284 103.588 116.2 103.8 116.2L124.4 116.2L122.96 114.28C122.897 114.196 122.851 114.1 122.825 113.999C122.799 113.897 122.793 113.791 122.808 113.687C122.823 113.583 122.858 113.483 122.912 113.392C122.965 113.302 123.036 113.223 123.12 113.16C123.204 113.097 123.3 113.051 123.401 113.025C123.503 112.999 123.609 112.993 123.713 113.008C123.817 113.023 123.917 113.058 124.008 113.112C124.098 113.165 124.177 113.236 124.24 113.32L126.635 116.514L126.646 116.527L127 117L126.646 117.472L126.635 117.486L124.24 120.68Z" fill="#0689FF"/>
</g>
<defs>
<clipPath id="clip0_2_551">
<rect width="24" height="24" fill="white" transform="translate(127 105) rotate(90)"/>
</clipPath>
</defs>
</svg>
