<svg width="131" height="129" viewBox="0 0 131 129" fill="none" xmlns="http://www.w3.org/2000/svg">
<path d="M6.33586 92.14C5.40253 92.14 4.56253 91.98 3.81586 91.66C3.06919 91.3267 2.48253 90.86 2.05586 90.26C1.62919 89.66 1.41586 88.96 1.41586 88.16H3.85586C3.90919 88.76 4.14253 89.2533 4.55586 89.64C4.98253 90.0267 5.57586 90.22 6.33586 90.22C7.12253 90.22 7.73586 90.0333 8.17586 89.66C8.61586 89.2733 8.83586 88.78 8.83586 88.18C8.83586 87.7133 8.69586 87.3333 8.41586 87.04C8.14919 86.7467 7.80919 86.52 7.39586 86.36C6.99586 86.2 6.43586 86.0267 5.71586 85.84C4.80919 85.6 4.06919 85.36 3.49586 85.12C2.93586 84.8667 2.45586 84.48 2.05586 83.96C1.65586 83.44 1.45586 82.7467 1.45586 81.88C1.45586 81.08 1.65586 80.38 2.05586 79.78C2.45586 79.18 3.01586 78.72 3.73586 78.4C4.45586 78.08 5.28919 77.92 6.23586 77.92C7.58253 77.92 8.68253 78.26 9.53586 78.94C10.4025 79.6067 10.8825 80.5267 10.9759 81.7H8.45586C8.41586 81.1933 8.17586 80.76 7.73586 80.4C7.29586 80.04 6.71586 79.86 5.99586 79.86C5.34253 79.86 4.80919 80.0267 4.39586 80.36C3.98253 80.6933 3.77586 81.1733 3.77586 81.8C3.77586 82.2267 3.90253 82.58 4.15586 82.86C4.42253 83.1267 4.75586 83.34 5.15586 83.5C5.55586 83.66 6.10253 83.8333 6.79586 84.02C7.71586 84.2733 8.46253 84.5267 9.03586 84.78C9.62253 85.0333 10.1159 85.4267 10.5159 85.96C10.9292 86.48 11.1359 87.18 11.1359 88.06C11.1359 88.7667 10.9425 89.4333 10.5559 90.06C10.1825 90.6867 9.62919 91.1933 8.89586 91.58C8.17586 91.9533 7.32253 92.14 6.33586 92.14ZM23.9262 86.22C23.9262 86.6333 23.8995 87.0067 23.8462 87.34H15.4262C15.4928 88.22 15.8195 88.9267 16.4062 89.46C16.9928 89.9933 17.7128 90.26 18.5662 90.26C19.7928 90.26 20.6595 89.7467 21.1662 88.72H23.6262C23.2928 89.7333 22.6862 90.5667 21.8062 91.22C20.9395 91.86 19.8595 92.18 18.5662 92.18C17.5128 92.18 16.5662 91.9467 15.7262 91.48C14.8995 91 14.2462 90.3333 13.7662 89.48C13.2995 88.6133 13.0662 87.6133 13.0662 86.48C13.0662 85.3467 13.2928 84.3533 13.7462 83.5C14.2128 82.6333 14.8595 81.9667 15.6862 81.5C16.5262 81.0333 17.4862 80.8 18.5662 80.8C19.6062 80.8 20.5328 81.0267 21.3462 81.48C22.1595 81.9333 22.7928 82.5733 23.2462 83.4C23.6995 84.2133 23.9262 85.1533 23.9262 86.22ZM21.5462 85.5C21.5328 84.66 21.2328 83.9867 20.6462 83.48C20.0595 82.9733 19.3328 82.72 18.4662 82.72C17.6795 82.72 17.0062 82.9733 16.4462 83.48C15.8862 83.9733 15.5528 84.6467 15.4462 85.5H21.5462ZM28.4499 77.2V92H26.1699V77.2H28.4499ZM33.7234 77.2V92H31.4434V77.2H33.7234ZM46.8168 86.22C46.8168 86.6333 46.7901 87.0067 46.7368 87.34H38.3168C38.3835 88.22 38.7101 88.9267 39.2968 89.46C39.8835 89.9933 40.6035 90.26 41.4568 90.26C42.6835 90.26 43.5501 89.7467 44.0568 88.72H46.5168C46.1835 89.7333 45.5768 90.5667 44.6968 91.22C43.8301 91.86 42.7501 92.18 41.4568 92.18C40.4035 92.18 39.4568 91.9467 38.6168 91.48C37.7901 91 37.1368 90.3333 36.6568 89.48C36.1901 88.6133 35.9568 87.6133 35.9568 86.48C35.9568 85.3467 36.1835 84.3533 36.6368 83.5C37.1035 82.6333 37.7501 81.9667 38.5768 81.5C39.4168 81.0333 40.3768 80.8 41.4568 80.8C42.4968 80.8 43.4235 81.0267 44.2368 81.48C45.0501 81.9333 45.6835 82.5733 46.1368 83.4C46.5901 84.2133 46.8168 85.1533 46.8168 86.22ZM44.4368 85.5C44.4235 84.66 44.1235 83.9867 43.5368 83.48C42.9501 82.9733 42.2235 82.72 41.3568 82.72C40.5701 82.72 39.8968 82.9733 39.3368 83.48C38.7768 83.9733 38.4435 84.6467 38.3368 85.5H44.4368ZM51.3405 82.58C51.6739 82.02 52.1139 81.5867 52.6605 81.28C53.2205 80.96 53.8805 80.8 54.6405 80.8V83.16H54.0605C53.1672 83.16 52.4872 83.3867 52.0205 83.84C51.5672 84.2933 51.3405 85.08 51.3405 86.2V92H49.0605V80.98H51.3405V82.58ZM71.9916 82.1C71.6316 81.4067 71.1316 80.8867 70.4916 80.54C69.8516 80.18 69.1116 80 68.2716 80C67.3516 80 66.5316 80.2067 65.8116 80.62C65.0916 81.0333 64.525 81.62 64.1116 82.38C63.7116 83.14 63.5116 84.02 63.5116 85.02C63.5116 86.02 63.7116 86.9067 64.1116 87.68C64.525 88.44 65.0916 89.0267 65.8116 89.44C66.5316 89.8533 67.3516 90.06 68.2716 90.06C69.5116 90.06 70.5183 89.7133 71.2916 89.02C72.065 88.3267 72.5383 87.3867 72.7116 86.2H67.4916V84.38H75.1516V86.16C75.005 87.24 74.6183 88.2333 73.9916 89.14C73.3783 90.0467 72.5716 90.7733 71.5716 91.32C70.585 91.8533 69.485 92.12 68.2716 92.12C66.965 92.12 65.7716 91.82 64.6916 91.22C63.6116 90.6067 62.7516 89.76 62.1116 88.68C61.485 87.6 61.1716 86.38 61.1716 85.02C61.1716 83.66 61.485 82.44 62.1116 81.36C62.7516 80.28 63.6116 79.44 64.6916 78.84C65.785 78.2267 66.9783 77.92 68.2716 77.92C69.7516 77.92 71.065 78.2867 72.2116 79.02C73.3716 79.74 74.2116 80.7667 74.7316 82.1H71.9916ZM87.3804 80.98V92H85.1004V90.7C84.7404 91.1533 84.2671 91.5133 83.6804 91.78C83.1071 92.0333 82.4937 92.16 81.8404 92.16C80.9737 92.16 80.1937 91.98 79.5004 91.62C78.8204 91.26 78.2804 90.7267 77.8804 90.02C77.4937 89.3133 77.3004 88.46 77.3004 87.46V80.98H79.5604V87.12C79.5604 88.1067 79.8071 88.8667 80.3004 89.4C80.7937 89.92 81.4671 90.18 82.3204 90.18C83.1737 90.18 83.8471 89.92 84.3404 89.4C84.8471 88.8667 85.1004 88.1067 85.1004 87.12V80.98H87.3804ZM91.5487 79.52C91.1353 79.52 90.7887 79.38 90.5087 79.1C90.2287 78.82 90.0887 78.4733 90.0887 78.06C90.0887 77.6467 90.2287 77.3 90.5087 77.02C90.7887 76.74 91.1353 76.6 91.5487 76.6C91.9487 76.6 92.2887 76.74 92.5687 77.02C92.8487 77.3 92.9887 77.6467 92.9887 78.06C92.9887 78.4733 92.8487 78.82 92.5687 79.1C92.2887 79.38 91.9487 79.52 91.5487 79.52ZM92.6687 80.98V92H90.3887V80.98H92.6687ZM94.9021 86.44C94.9021 85.3333 95.1288 84.3533 95.5821 83.5C96.0488 82.6467 96.6754 81.9867 97.4621 81.52C98.2621 81.04 99.1488 80.8 100.122 80.8C100.842 80.8 101.549 80.96 102.242 81.28C102.949 81.5867 103.509 82 103.922 82.52V77.2H106.222V92H103.922V90.34C103.549 90.8733 103.029 91.3133 102.362 91.66C101.709 92.0067 100.955 92.18 100.102 92.18C99.1421 92.18 98.2621 91.94 97.4621 91.46C96.6754 90.9667 96.0488 90.2867 95.5821 89.42C95.1288 88.54 94.9021 87.5467 94.9021 86.44ZM103.922 86.48C103.922 85.72 103.762 85.06 103.442 84.5C103.135 83.94 102.729 83.5133 102.222 83.22C101.715 82.9267 101.169 82.78 100.582 82.78C99.9954 82.78 99.4488 82.9267 98.9421 83.22C98.4354 83.5 98.0221 83.92 97.7021 84.48C97.3954 85.0267 97.2421 85.68 97.2421 86.44C97.2421 87.2 97.3954 87.8667 97.7021 88.44C98.0221 89.0133 98.4354 89.4533 98.9421 89.76C99.4621 90.0533 100.009 90.2 100.582 90.2C101.169 90.2 101.715 90.0533 102.222 89.76C102.729 89.4667 103.135 89.04 103.442 88.48C103.762 87.9067 103.922 87.24 103.922 86.48ZM119.317 86.22C119.317 86.6333 119.29 87.0067 119.237 87.34H110.817C110.883 88.22 111.21 88.9267 111.797 89.46C112.383 89.9933 113.103 90.26 113.957 90.26C115.183 90.26 116.05 89.7467 116.557 88.72H119.017C118.683 89.7333 118.077 90.5667 117.197 91.22C116.33 91.86 115.25 92.18 113.957 92.18C112.903 92.18 111.957 91.9467 111.117 91.48C110.29 91 109.637 90.3333 109.157 89.48C108.69 88.6133 108.457 87.6133 108.457 86.48C108.457 85.3467 108.683 84.3533 109.137 83.5C109.603 82.6333 110.25 81.9667 111.077 81.5C111.917 81.0333 112.877 80.8 113.957 80.8C114.997 80.8 115.923 81.0267 116.737 81.48C117.55 81.9333 118.183 82.5733 118.637 83.4C119.09 84.2133 119.317 85.1533 119.317 86.22ZM116.937 85.5C116.923 84.66 116.623 83.9867 116.037 83.48C115.45 82.9733 114.723 82.72 113.857 82.72C113.07 82.72 112.397 82.9733 111.837 83.48C111.277 83.9733 110.943 84.6467 110.837 85.5H116.937ZM125.561 92.18C124.694 92.18 123.914 92.0267 123.221 91.72C122.541 91.4 122.001 90.9733 121.601 90.44C121.201 89.8933 120.987 89.2867 120.961 88.62H123.321C123.361 89.0867 123.581 89.48 123.981 89.8C124.394 90.1067 124.907 90.26 125.521 90.26C126.161 90.26 126.654 90.14 127.001 89.9C127.361 89.6467 127.541 89.3267 127.541 88.94C127.541 88.5267 127.341 88.22 126.941 88.02C126.554 87.82 125.934 87.6 125.081 87.36C124.254 87.1333 123.581 86.9133 123.061 86.7C122.541 86.4867 122.087 86.16 121.701 85.72C121.327 85.28 121.141 84.7 121.141 83.98C121.141 83.3933 121.314 82.86 121.661 82.38C122.007 81.8867 122.501 81.5 123.141 81.22C123.794 80.94 124.541 80.8 125.381 80.8C126.634 80.8 127.641 81.12 128.401 81.76C129.174 82.3867 129.587 83.2467 129.641 84.34H127.361C127.321 83.8467 127.121 83.4533 126.761 83.16C126.401 82.8667 125.914 82.72 125.301 82.72C124.701 82.72 124.241 82.8333 123.921 83.06C123.601 83.2867 123.441 83.5867 123.441 83.96C123.441 84.2533 123.547 84.5 123.761 84.7C123.974 84.9 124.234 85.06 124.541 85.18C124.847 85.2867 125.301 85.4267 125.901 85.6C126.701 85.8133 127.354 86.0333 127.861 86.26C128.381 86.4733 128.827 86.7933 129.201 87.22C129.574 87.6467 129.767 88.2133 129.781 88.92C129.781 89.5467 129.607 90.1067 129.261 90.6C128.914 91.0933 128.421 91.48 127.781 91.76C127.154 92.04 126.414 92.18 125.561 92.18Z" fill="#3B3C45"/>
<path d="M77 22C69.832 22 64 27.832 64 35C64 42.168 69.832 48 77 48C84.168 48 90 42.168 90 35C90 27.832 84.168 22 77 22ZM76.75 33.5H77.25C79.318 33.5 81 35.182 81 37.25C81 38.876 79.952 40.252 78.5 40.77V41.5C78.5 42.328 77.828 43 77 43C76.172 43 75.5 42.328 75.5 41.5V41H74.5C73.672 41 73 40.328 73 39.5C73 38.672 73.672 38 74.5 38H77.25C77.664 38 78 37.664 78 37.25C78 36.836 77.664 36.5 77.25 36.5H76.75C74.682 36.5 73 34.818 73 32.75C73 31.124 74.048 29.748 75.5 29.23V28.5C75.5 27.672 76.172 27 77 27C77.828 27 78.5 27.672 78.5 28.5V29H79.5C80.328 29 81 29.672 81 30.5C81 31.328 80.328 32 79.5 32H76.75C76.336 32 76 32.336 76 32.75C76 33.164 76.336 33.5 76.75 33.5Z" fill="#F7A804"/>
<path d="M76 11.916V4.00004C76 2.89404 75.104 2.00004 74 2.00004C72.896 2.00004 72 2.89404 72 4.00004V8.00404L64.398 0.570035C63.62 -0.191965 62.378 -0.191965 61.602 0.570035L42.878 18.874C42.32 19.438 42 20.212 42 21C42 22.654 43.346 24 45 24H48V35C48 37.758 50.244 40 53 40H58C59.104 40 60 39.106 60 38C60 36.894 59.104 36 58 36H53C52.448 36 52 35.55 52 35V22C52 20.894 51.104 20 50 20H47.446L63 4.79604L76.102 17.608C76.894 18.382 78.158 18.368 78.93 17.576C79.702 16.786 79.688 15.52 78.898 14.748L76 11.916Z" fill="#3B3C45"/>
<path d="M21.1394 111.228V121H19.1794V116.842H14.9934V121H13.0334V111.228H14.9934V115.246H19.1794V111.228H21.1394ZM26.5125 121.126C25.7659 121.126 25.0939 120.963 24.4965 120.636C23.8992 120.3 23.4279 119.829 23.0825 119.222C22.7465 118.615 22.5785 117.915 22.5785 117.122C22.5785 116.329 22.7512 115.629 23.0965 115.022C23.4512 114.415 23.9319 113.949 24.5385 113.622C25.1452 113.286 25.8219 113.118 26.5685 113.118C27.3152 113.118 27.9919 113.286 28.5985 113.622C29.2052 113.949 29.6812 114.415 30.0265 115.022C30.3812 115.629 30.5585 116.329 30.5585 117.122C30.5585 117.915 30.3765 118.615 30.0125 119.222C29.6579 119.829 29.1725 120.3 28.5565 120.636C27.9499 120.963 27.2685 121.126 26.5125 121.126ZM26.5125 119.418C26.8672 119.418 27.1985 119.334 27.5065 119.166C27.8239 118.989 28.0759 118.727 28.2625 118.382C28.4492 118.037 28.5425 117.617 28.5425 117.122C28.5425 116.385 28.3465 115.82 27.9545 115.428C27.5719 115.027 27.1005 114.826 26.5405 114.826C25.9805 114.826 25.5092 115.027 25.1265 115.428C24.7532 115.82 24.5665 116.385 24.5665 117.122C24.5665 117.859 24.7485 118.429 25.1125 118.83C25.4859 119.222 25.9525 119.418 26.5125 119.418ZM42.7483 113.244L40.4803 121H38.3663L36.9523 115.582L35.5383 121H33.4103L31.1283 113.244H33.1163L34.4883 119.152L35.9723 113.244H38.0443L39.5003 119.138L40.8723 113.244H42.7483ZM49.4267 114.854V118.606C49.4267 118.867 49.4874 119.059 49.6087 119.18C49.7394 119.292 49.954 119.348 50.2527 119.348H51.1627V121H49.9307C48.2787 121 47.4527 120.197 47.4527 118.592V114.854H46.5287V113.244H47.4527V111.326H49.4267V113.244H51.1627V114.854H49.4267ZM56.0164 121.126C55.2698 121.126 54.5978 120.963 54.0004 120.636C53.4031 120.3 52.9318 119.829 52.5864 119.222C52.2504 118.615 52.0824 117.915 52.0824 117.122C52.0824 116.329 52.2551 115.629 52.6004 115.022C52.9551 114.415 53.4358 113.949 54.0424 113.622C54.6491 113.286 55.3258 113.118 56.0724 113.118C56.8191 113.118 57.4958 113.286 58.1024 113.622C58.7091 113.949 59.1851 114.415 59.5304 115.022C59.8851 115.629 60.0624 116.329 60.0624 117.122C60.0624 117.915 59.8804 118.615 59.5164 119.222C59.1618 119.829 58.6764 120.3 58.0604 120.636C57.4538 120.963 56.7724 121.126 56.0164 121.126ZM56.0164 119.418C56.3711 119.418 56.7024 119.334 57.0104 119.166C57.3278 118.989 57.5798 118.727 57.7664 118.382C57.9531 118.037 58.0464 117.617 58.0464 117.122C58.0464 116.385 57.8504 115.82 57.4584 115.428C57.0758 115.027 56.6044 114.826 56.0444 114.826C55.4844 114.826 55.0131 115.027 54.6304 115.428C54.2571 115.82 54.0704 116.385 54.0704 117.122C54.0704 117.859 54.2524 118.429 54.6164 118.83C54.9898 119.222 55.4564 119.418 56.0164 119.418ZM67.8041 121.126C67.1695 121.126 66.6001 121.014 66.0961 120.79C65.5921 120.557 65.1908 120.244 64.8921 119.852C64.6028 119.46 64.4441 119.026 64.4161 118.55H66.3901C66.4275 118.849 66.5721 119.096 66.8241 119.292C67.0855 119.488 67.4075 119.586 67.7901 119.586C68.1635 119.586 68.4528 119.511 68.6581 119.362C68.8728 119.213 68.9801 119.021 68.9801 118.788C68.9801 118.536 68.8495 118.349 68.5881 118.228C68.3361 118.097 67.9301 117.957 67.3701 117.808C66.7915 117.668 66.3155 117.523 65.9421 117.374C65.5781 117.225 65.2608 116.996 64.9901 116.688C64.7288 116.38 64.5981 115.965 64.5981 115.442C64.5981 115.013 64.7195 114.621 64.9621 114.266C65.2141 113.911 65.5688 113.631 66.0261 113.426C66.4928 113.221 67.0388 113.118 67.6641 113.118C68.5881 113.118 69.3255 113.351 69.8761 113.818C70.4268 114.275 70.7301 114.896 70.7861 115.68H68.9101C68.8821 115.372 68.7515 115.129 68.5181 114.952C68.2941 114.765 67.9908 114.672 67.6081 114.672C67.2535 114.672 66.9781 114.737 66.7821 114.868C66.5955 114.999 66.5021 115.181 66.5021 115.414C66.5021 115.675 66.6328 115.876 66.8941 116.016C67.1555 116.147 67.5615 116.282 68.1121 116.422C68.6721 116.562 69.1341 116.707 69.4981 116.856C69.8621 117.005 70.1748 117.239 70.4361 117.556C70.7068 117.864 70.8468 118.275 70.8561 118.788C70.8561 119.236 70.7301 119.637 70.4781 119.992C70.2355 120.347 69.8808 120.627 69.4141 120.832C68.9568 121.028 68.4201 121.126 67.8041 121.126ZM79.675 116.954C79.675 117.234 79.6564 117.486 79.619 117.71H73.949C73.9957 118.27 74.1917 118.709 74.537 119.026C74.8824 119.343 75.307 119.502 75.811 119.502C76.539 119.502 77.057 119.189 77.365 118.564H79.479C79.255 119.311 78.8257 119.927 78.191 120.412C77.5564 120.888 76.777 121.126 75.853 121.126C75.1064 121.126 74.4344 120.963 73.837 120.636C73.249 120.3 72.787 119.829 72.451 119.222C72.1244 118.615 71.961 117.915 71.961 117.122C71.961 116.319 72.1244 115.615 72.451 115.008C72.7777 114.401 73.235 113.935 73.823 113.608C74.411 113.281 75.0877 113.118 75.853 113.118C76.5904 113.118 77.2484 113.277 77.827 113.594C78.415 113.911 78.8677 114.364 79.185 114.952C79.5117 115.531 79.675 116.198 79.675 116.954ZM77.645 116.394C77.6357 115.89 77.4537 115.489 77.099 115.19C76.7444 114.882 76.3104 114.728 75.797 114.728C75.3117 114.728 74.901 114.877 74.565 115.176C74.2384 115.465 74.0377 115.871 73.963 116.394H77.645ZM83.0656 110.64V121H81.1056V110.64H83.0656ZM86.9621 110.64V121H85.0021V110.64H86.9621Z" fill="#0689FF"/>
<path d="M117.24 120.68C117.113 120.85 116.923 120.962 116.713 120.992C116.503 121.022 116.29 120.967 116.12 120.84C115.95 120.713 115.838 120.523 115.808 120.313C115.778 120.103 115.833 119.89 115.96 119.72L117.4 117.8L96.8 117.8C96.5878 117.8 96.3843 117.716 96.2343 117.566C96.0843 117.416 96 117.212 96 117C96 116.788 96.0843 116.584 96.2343 116.434C96.3843 116.284 96.5878 116.2 96.8 116.2L117.4 116.2L115.96 114.28C115.897 114.196 115.851 114.1 115.825 113.999C115.799 113.897 115.793 113.791 115.808 113.687C115.823 113.583 115.858 113.483 115.912 113.392C115.965 113.302 116.036 113.223 116.12 113.16C116.204 113.097 116.3 113.051 116.401 113.025C116.503 112.999 116.609 112.993 116.713 113.008C116.817 113.023 116.917 113.058 117.008 113.112C117.098 113.165 117.177 113.236 117.24 113.32L119.635 116.514L119.646 116.527L120 117L119.646 117.472L119.635 117.486L117.24 120.68Z" fill="#0689FF"/>
</svg>
